<svg width="22" height="23" viewBox="0 0 22 23" fill="none" xmlns="http://www.w3.org/2000/svg">
<g clip-path="url(#clip0_386_2012)">
<path d="M3.66699 6.91667H18.3337M9.16699 10.5833V16.0833M12.8337 10.5833V16.0833M4.58366 6.91667L5.50033 17.9167C5.50033 18.4029 5.69348 18.8692 6.0373 19.213C6.38111 19.5568 6.84743 19.75 7.33366 19.75H14.667C15.1532 19.75 15.6195 19.5568 15.9634 19.213C16.3072 18.8692 16.5003 18.4029 16.5003 17.9167L17.417 6.91667M8.25033 6.91667V4.16667C8.25033 3.92355 8.3469 3.69039 8.51881 3.51849C8.69072 3.34658 8.92388 3.25 9.16699 3.25H12.8337C13.0768 3.25 13.3099 3.34658 13.4818 3.51849C13.6537 3.69039 13.7503 3.92355 13.7503 4.16667V6.91667" stroke="#33303C" stroke-opacity="0.6" stroke-width="1.375" stroke-linecap="round" stroke-linejoin="round"/>
</g>
<defs>
<clipPath id="clip0_386_2012">
<rect width="22" height="22" fill="white" transform="translate(0 0.5)"/>
</clipPath>
</defs>
</svg>
