<svg width="20" height="12" viewBox="0 0 20 12" fill="none" xmlns="http://www.w3.org/2000/svg">
<path d="M10 3.505C11.0609 3.505 12.0783 3.92643 12.8285 4.67657C13.5786 5.42672 14 6.44413 14 7.505C14 8.56587 13.5786 9.58328 12.8285 10.3334C12.0783 11.0836 11.0609 11.505 10 11.505C8.93916 11.505 7.92174 11.0836 7.1716 10.3334C6.42145 9.58328 6.00002 8.56587 6.00002 7.505C6.00002 6.44413 6.42145 5.42672 7.1716 4.67657C7.92174 3.92643 8.93916 3.505 10 3.505ZM10 5.005C9.33698 5.005 8.7011 5.26839 8.23226 5.73723C7.76342 6.20607 7.50002 6.84196 7.50002 7.505C7.50002 8.16804 7.76342 8.80393 8.23226 9.27277C8.7011 9.74161 9.33698 10.005 10 10.005C10.6631 10.005 11.2989 9.74161 11.7678 9.27277C12.2366 8.80393 12.5 8.16804 12.5 7.505C12.5 6.84196 12.2366 6.20607 11.7678 5.73723C11.2989 5.26839 10.6631 5.005 10 5.005ZM10 0C14.613 0 18.596 3.15 19.701 7.564C19.7494 7.75695 19.7192 7.96122 19.617 8.13187C19.5148 8.30253 19.349 8.4256 19.156 8.474C18.9631 8.5224 18.7588 8.49217 18.5882 8.38997C18.4175 8.28776 18.2944 8.12194 18.246 7.929C17.7838 6.09181 16.7212 4.4616 15.227 3.29704C13.7328 2.13248 11.8924 1.50028 9.99796 1.50074C8.10351 1.5012 6.26347 2.1343 4.7698 3.29958C3.27613 4.46486 2.21438 6.09558 1.75302 7.933C1.70121 8.12193 1.57754 8.28309 1.40844 8.38201C1.23935 8.48094 1.03826 8.50977 0.848178 8.46235C0.658099 8.41493 0.494119 8.29501 0.391308 8.12825C0.288496 7.96149 0.255015 7.76113 0.298023 7.57C0.840297 5.40746 2.08948 3.48806 3.84723 2.11657C5.60498 0.745088 7.77053 0.000134572 10 0Z" fill="#878BA8"/>
</svg>
