<svg width="22" height="22" viewBox="0 0 22 22" fill="none" xmlns="http://www.w3.org/2000/svg">
<g clip-path="url(#clip0_440_2457)">
<path d="M6.41675 6.41669H5.50008C5.01385 6.41669 4.54754 6.60984 4.20372 6.95366C3.8599 7.29747 3.66675 7.76379 3.66675 8.25002V16.5C3.66675 16.9863 3.8599 17.4526 4.20372 17.7964C4.54754 18.1402 5.01385 18.3334 5.50008 18.3334H13.7501C14.2363 18.3334 14.7026 18.1402 15.0464 17.7964C15.3903 17.4526 15.5834 16.9863 15.5834 16.5V15.5834" stroke="#33303C" stroke-opacity="0.6" stroke-width="1.375" stroke-linecap="round" stroke-linejoin="round"/>
<path d="M14.6667 4.58334L17.4167 7.33334M18.6863 6.03626C19.0473 5.67523 19.2501 5.18557 19.2501 4.67501C19.2501 4.16444 19.0473 3.67478 18.6863 3.31376C18.3252 2.95273 17.8356 2.74991 17.325 2.74991C16.8144 2.74991 16.3248 2.95273 15.9638 3.31376L8.25 11V13.75H11L18.6863 6.03626Z" stroke="#33303C" stroke-opacity="0.6" stroke-width="1.375" stroke-linecap="round" stroke-linejoin="round"/>
</g>
<defs>
<clipPath id="clip0_440_2457">
<rect width="22" height="22" fill="white"/>
</clipPath>
</defs>
</svg>
